<?xml version="1.0" encoding="UTF-8"?>
<svg width="24px" height="24px" viewBox="0 0 24 24" version="1.1" xmlns="http://www.w3.org/2000/svg">
    <path d="M20,2H8C6.9,2,6,2.9,6,4v12c0,1.1,0.9,2,2,2h12c1.1,0,2-0.9,2-2V4C22,2.9,21.1,2,20,2z M11.5,9.5c0,0.8-0.7,1.5-1.5,1.5 H9v2H7.5V7H10c0.8,0,1.5,0.7,1.5,1.5V9.5z M16.5,11.5c0,0.8-0.7,1.5-1.5,1.5h-2.5V7H15c0.8,0,1.5,0.7,1.5,1.5V11.5z M20.5,9.5 C20.5,10.3,19.8,11,19,11h-1v2h-1.5V7h2.5c0.8,0,1.5,0.7,1.5,1.5V9.5z M9,9h1v-1H9V9z M4,6H2v14c0,1.1,0.9,2,2,2h14v-2H4V6z M14,11h1 V8h-1V11z M19,9h1V8h-1V9z" fill="currentColor"/>
</svg>
